<?xml version="1.0" encoding="utf-8"?>
<!-- Generator: Adobe Illustrator 24.2.3, SVG Export Plug-In . SVG Version: 6.00 Build 0)  -->
<svg version="1.1" id="Layer_1" xmlns="http://www.w3.org/2000/svg" xmlns:xlink="http://www.w3.org/1999/xlink" x="0px" y="0px"
	 viewBox="0 0 1850.7 1576.1" style="enable-background:new 0 0 1850.7 1576.1;" xml:space="preserve">
<style type="text/css">
	.st0{fill:#E2F2F1;}
	.st1{fill:#1A6991;}
	.st2{fill:#4CB7D8;}
	.st3{fill:#ABE9FF;}
	.st4{fill:#0A161E;}
	.st5{fill:#EF7F33;}
	.st6{fill:#223749;}
	.st7{fill:#FEC786;}
	.st8{fill:#F99247;}
	.st9{fill:#122330;}
	.st10{fill:#21111D;}
	.st11{fill:#F5C786;}
	.st12{fill:#FE9F73;}
	.st13{fill:#F07162;}
	.st14{fill:#EF3A4C;}
	.st15{fill:#E02742;}
	.st16{fill:#F7597F;}
	.st17{fill:#FFD4E0;}
	.st18{fill:#49263E;}
	.st19{opacity:0.5;fill:#ABE9FF;}
</style>
<g>
	<g id="Layer_2_1_">
		<g id="Layer_1-2">
			<g>
				<path class="st0" d="M1055.1,405c5.4-24.5,6.7-49.8,4-74.7l53.2-30.5l-14-39.5l-13.9-39.6l-60.6,9.6c-13.5-21.2-30.4-40-50-55.7
					l16-59.2L952,97.3l-37.8-18.1l-36,49.6c-24.5-5.4-49.8-6.7-74.7-4l-30.6-53.2l-39.5,14l-39.5,14l9.6,60.6
					c-21.2,13.5-39.9,30.4-55.7,50l-59.2-16L570.4,232l-18.1,37.8l49.6,36.1c-5.4,24.5-6.7,49.8-4,74.7l-53.2,30.5l14,39.5l14,39.5
					l60.6-9.6c13.5,21.1,30.4,39.9,50,55.7l-16,59.2l37.8,18.1l37.8,18.1L779,582c24.5,5.4,49.8,6.7,74.7,4l30.5,53.2l39.5-14
					l39.5-14l-9.6-60.6c21.2-13.5,40-30.4,55.7-50l59.2,16l18.1-37.8l18.1-37.8L1055.1,405z M834.6,512.7
					c-86.8,3.4-160-64.2-163.4-151.1c-3.4-86.8,64.2-160,151.1-163.4s160,64.2,163.4,151.1l0,0C989.1,436.1,921.5,509.3,834.6,512.7
					z"/>
			</g>
			<g>
				<path class="st0" d="M1539.8,486.8c-5.9-16.3-14.5-31.6-25.3-45.1l19.8-37.5l-22.8-18l-22.8-17.9l-31.8,28
					c-15.7-7.4-32.6-12.1-49.8-14l-12.6-40.5l-28.8,3.4l-28.8,3.4l-2.7,42.3c-16.3,5.9-31.6,14.5-45.1,25.3l-37.5-19.8l-18,22.8
					l-17.9,22.8l28,31.9c-7.4,15.7-12.1,32.6-14,49.8l-40.5,12.5l3.4,28.8l3.4,28.8l42.3,2.7c5.9,16.3,14.5,31.6,25.3,45.1
					l-19.8,37.5l22.8,18l22.8,17.9l31.8-28c15.7,7.4,32.6,12.1,49.8,14l12.6,40.5l28.8-3.4l28.8-3.4l2.7-42.3
					c16.3-5.9,31.6-14.5,45.1-25.3l37.5,19.8l18-22.8l17.9-22.8l-28-31.8c7.3-15.7,12.1-32.6,14-49.8l40.5-12.6l-3.4-28.8l-3.4-28.8
					L1539.8,486.8z M1401.9,649.7c-59.7,7.1-113.8-35.5-120.9-95.2s35.5-113.8,95.2-120.9s113.8,35.5,120.9,95.2l0,0
					C1504.2,588.5,1461.6,642.6,1401.9,649.7L1401.9,649.7z"/>
			</g>
			<g>
				<path class="st0" d="M465.7,360.6c-6.6-9.7-14.7-18.4-24-25.5l6.9-27.9l-17.9-8l-17.9-8l-16.3,23.6c-11.5-2.3-23.4-2.6-35-1.1
					l-14.9-24.5l-18.3,7L310,303l5.1,28.2c-9.7,6.6-18.4,14.7-25.5,24l-27.9-6.8l-8,17.9l-8.1,17.9l23.6,16.3
					c-2.3,11.5-2.6,23.4-1.1,35l-24.5,14.9l6.9,18.3l7,18.3l28.2-5.1c6.6,9.7,14.7,18.4,24,25.5l-6.9,27.8l17.9,8.1l17.9,8
					l16.2-23.5c11.5,2.3,23.4,2.6,35,1.1l14.9,24.5l18.3-6.9l18.3-7l-5.1-28.2c9.7-6.6,18.3-14.7,25.5-24l27.8,6.9l8-17.9l8-17.9
					L482.2,442c2.3-11.5,2.6-23.4,1.1-35l24.5-14.9l-7-18.3l-7-18.3L465.7,360.6z M401.8,490c-38,14.4-80.4-4.7-94.8-42.7
					s4.7-80.4,42.7-94.8s80.4,4.7,94.8,42.7l0,0C458.9,433.1,439.8,475.6,401.8,490z"/>
			</g>
			<rect x="237.3" y="981" class="st1" width="1296.4" height="407.9"/>
			<rect x="243" y="981.7" class="st2" width="222.4" height="588.6"/>
			<rect x="225.1" y="981.7" class="st3" width="17.9" height="588.6"/>
			<rect x="242.4" y="981.7" width="1.4" height="588.6"/>
			<rect x="224.4" y="981.7" width="1.4" height="498.8"/>
			<path class="st4" d="M1048,945.3h65.7l-37.8-184.1h93.2l37.8,184.1h65.4c9.2,0,19.5,7.5,23,16.7h-257.8
				C1034.1,952.8,1038.7,945.3,1048,945.3z"/>
			<path class="st5" d="M846.5,875l5.9-42.9l37-267.5c1.8-12.7,13.5-23,26.2-23h518.7l0.1-0.7c13.1,0,22.2,10.6,20.4,23.7l-43,310.4
				c-1.3,9.3-8.5,16.8-16.2,16.8H857.3l0.1-0.7C850.1,891.2,845.2,884,846.5,875z"/>
			<polygon class="st6" points="1101.8,956.5 1195.1,956.5 1155,761.2 1061.8,761.2 			"/>
			<path class="st7" d="M835.8,832.2l37-267.5c1.8-12.7,13.5-23,26.2-23h518.7c12.7,0,21.6,10.3,19.8,23l-37,267.5H835.8z"/>
			<path class="st8" d="M1267.8,845.6L1267.8,845.6L1267.8,845.6l0.1,0.2l0.2-0.1l0.1-0.1l-0.1-0.1h-0.1L1267.8,845.6L1267.8,845.6z
				"/>
			<path class="st8" d="M1222.4,845.9L1222.4,845.9L1222.4,845.9z"/>
			<path class="st8" d="M1212.5,832.5L1212.5,832.5c0-0.2,0-0.2,0-0.3h-0.1L1212.5,832.5z"/>
			<path class="st3" d="M850.7,820.5L886,565.4c0.9-6.7,7.3-12.1,14.2-12.1h513.2c6.9,0,11.8,5.4,10.9,12.1L1389,820.5H850.7z"/>
			<path class="st9" d="M1023.5,962c-3.5-9.2,1.2-16.7,10.4-16.7h224.3c9.2,0,19.5,7.5,23,16.7H1023.5z"/>
			<path class="st10" d="M840.7,891.8h538.4c7.6,0,14.9-7.5,16.2-16.8l43-310.4c1.8-13.1-7.3-23.7-20.4-23.7l-0.2,1.3
				c12.3,0,20.9,10,19.2,22.3l-43,310.4c-1.2,8.5-7.8,15.5-14.6,15.5H840.9L840.7,891.8z"/>
			<polygon class="st10" points="867.6,862.1 868.8,861.3 858.4,843.4 857.2,844.2 			"/>
			<polygon class="st10" points="866.4,870.5 867.6,869.7 857.2,852.3 856,853.1 			"/>
			<polygon class="st10" points="1161.9,906.9 1162.9,906.2 1154.2,895 1153.2,895.7 			"/>
			<polygon class="st10" points="1162.1,913.3 1163.2,912.6 1155.4,902.8 1154.3,903.5 			"/>
			<path class="st10" d="M849.9,821.2h539l0.2-1.3H851.4l35.2-254.5c0.9-6.3,6.9-11.4,13.5-11.4l0.2-1.3c-7.3,0-14,5.7-15,12.8
				L849.9,821.2z"/>
			<path class="st11" d="M1267.9,845.7L1267.9,845.7L1267.9,845.7h0.2H1267.9L1267.9,845.7z"/>
			<path class="st8" d="M840.8,891.2h538.4c7.3,0,14.2-7.2,15.4-16.2l5.9-42.9h-188.1c0,0.1,0,0.1,0,0.2v0.1l-0.1-0.3H835.8
				l-5.9,42.8C828.7,884,833.5,891.2,840.8,891.2z M1222.4,845.9L1222.4,845.9L1222.4,845.9z"/>
			<path d="M1212.5,832.2h4.8c6.9-1.3,13.7-3,20.4-5.1l2.1-0.7l0.3-0.1c0.2-0.1,0.2-0.2,0.2-0.4v-0.1c-0.1-0.2-0.2-0.3-0.4-0.2l0,0
				l-0.3,0.1c-0.4,0.1-1.2,0.3-2.2,0.7c-4.8,1.4-15.2,4.4-22.2,5.3c-0.8,0.1-1.5,0.2-2.2,0.2h-0.3h-0.1
				C1212.6,832,1212.5,832.1,1212.5,832.2z"/>
			<rect x="1203.1" y="821.2" class="st7" width="42.9" height="10.9"/>
			<rect x="1205.4" y="819.9" class="st10" width="39.5" height="1.3"/>
			<rect x="1183.5" y="832.1" class="st8" width="67.8" height="8.9"/>
			<rect x="187.9" y="961.5" class="st6" width="1433.2" height="19.6"/>
			<rect x="1312.8" y="981" class="st3" width="251.3" height="588.6"/>
			<rect x="1292.5" y="981" class="st2" width="20.2" height="588.6"/>
			<rect x="417" y="1205.2" class="st9" width="195.5" height="364.5"/>
			<rect x="292.7" y="1205.2" class="st6" width="124.3" height="364.5"/>
			<path class="st7" d="M395.9,1241.2c0,2.8,2.2,5,5,5s5-2.2,5-5s-2.2-5-5-5S395.9,1238.4,395.9,1241.2z"/>
			<path class="st7" d="M395.9,1340.7c0,2.8,2.2,5,5,5s5-2.2,5-5s-2.2-5-5-5S395.9,1337.9,395.9,1340.7z"/>
			<path class="st7" d="M395.9,1440.2c0,2.8,2.2,5,5,5s5-2.2,5-5s-2.2-5-5-5S395.9,1437.4,395.9,1440.2z"/>
			<rect x="292.7" y="1396.4" class="st9" width="124.3" height="2.8"/>
			<rect x="292.7" y="1491.4" class="st9" width="124.3" height="2.8"/>
			<rect x="436.4" y="1227.3" class="st6" width="156.4" height="1.6"/>
			<rect x="436.4" y="1236" class="st6" width="156.4" height="1.6"/>
			<rect x="436.4" y="1244.7" class="st6" width="156.4" height="1.6"/>
			<rect x="436.4" y="1253.4" class="st6" width="156.4" height="1.6"/>
			<rect x="292.7" y="1289.5" class="st9" width="124.3" height="2.8"/>
			<polygon points="291.5,1569.6 293.8,1569.6 293.8,1206.3 611.3,1206.3 611.3,1569.6 613.7,1569.6 613.7,1204 291.5,1204 			"/>
			<rect x="415.9" y="1205.2" width="2.3" height="154.6"/>
			<rect x="484.6" y="1491.4" transform="matrix(0.5593 -0.8289 0.8289 0.5593 -1045.121 1072.0049)" width="2.3" height="55.1"/>
			<rect x="463.9" y="1503.9" transform="matrix(0.5593 -0.829 0.829 0.5593 -1064.5896 1060.454)" width="2.3" height="55.2"/>
			<path class="st12" d="M749.5,618.3v56.2c0,0,0.8,19-15.8,21.4l3.1,25.3c1.2,9.4-4.5,18.4-13.5,21.3c-5.1,1.6-10.4,2.4-15.7,2.4
				c-19,0-29.3-14.2-30.9-21.4s3.2-41.2,3.2-41.2l-0.6-16.7l2.2-64.8L749.5,618.3z"/>
			<path class="st10" d="M683.7,604l13.2,18.8c0,0,40.1,15.6,60.7-2.9s14.2-27.3,8.2-36.6c-3-4.5-17.2-13.8-34.6-6.1
				c-9.5,4.2-16.5-8.4-27.6-2s-24.1,17.3-22.7,21.6S683.7,604,683.7,604z"/>
			<path class="st10" d="M684.5,596.1c0,0-18.3-0.9-23.4,16.7s1.8,26.8,1.9,32s-3.4,40.6,21.4,38l6.7-58.4l-8.6-23.2L684.5,596.1z"
				/>
			<path class="st10" d="M737.3,623.8c0,0,1.5,16.5,0,21s-19.5,16.5-19.5,16.5s-1.5,31.5-4.5,33s-29.6-4.3-38.1-12.7
				s0.5-74.4,0.5-74.4s7.5-9,15-10.5s43.5-4.5,42,0S737.3,623.8,737.3,623.8z"/>
			<ellipse class="st12" cx="718.8" cy="652.6" rx="14" ry="14.2"/>
			<path class="st13" d="M717.8,661.3c-2.6-0.1-4.8-1.9-5.5-4.5c-0.8-2.4,0.1-5.1,2.2-6.5c2.3-1.4,5.2-1.3,7.3,0.3
				c-0.5-1.5-1.5-2.7-2.8-3.5c-2.8-1.5-6.2-0.4-6.2-0.4c-0.2,0.1-0.4,0-0.5-0.2l0,0c-0.1-0.2,0-0.4,0.2-0.5c0.2,0,3.8-1.2,6.8,0.5
				c1.9,1.1,3.2,3,3.6,5.2l0.3,1.4l-1-1c-0.1-0.2-3.5-3.4-7.4-1c-1.8,1.2-2.6,3.5-1.9,5.6c0.5,2.2,2.4,3.8,4.7,3.9h0.1
				c0.2,0,0.4,0.2,0.4,0.4l0,0C718.3,661.1,718.1,661.3,717.8,661.3L717.8,661.3z"/>
			<polygon class="st14" points="743,724.3 740,709.5 671.6,698.8 666.9,716.7 697.6,724.3 			"/>
			<path class="st12" d="M1108.2,923.5c0,0,44,0.3,55.5,10.2s14.3,27.7,14.3,27.7h-86.9L1108.2,923.5z"/>
			<polygon class="st12" points="752.9,1531.2 669,1518 686.8,1428.4 778,1440.2 			"/>
			<path class="st15" d="M667.6,1551.2h79l32-35.8l58.6,35.8h12.6c4.4,0,8.3,3.1,9.2,7.4c1,5-2.2,9.8-7.1,10.8
				c-0.6,0.1-1.1,0.2-1.7,0.2H666.5c-1.4,0-2.5-1.1-2.4-2.5l0,0v-12.3C664,1552.8,665.6,1551.2,667.6,1551.2z"/>
			<path class="st16" d="M668.3,1551.3V1518c0,0,13.3-18.4,33.5-9c0,0,30.6,22.3,57.6-4.7l67,30.5c0,0,18.4,6.3,23.4,16.4
				L668.3,1551.3z"/>
			<rect x="667.6" y="1518" width="1.3" height="33.1"/>
			<path d="M729.3,1518.4c1.4,0,2.8-0.1,4.2-0.2l-0.2-1.4c-11,1-22-2-31-8.3l-0.8,1.1C709.7,1515.3,719.4,1518.4,729.3,1518.4z"/>
			<polygon points="684.6,1545.1 685.4,1543.9 676.8,1538 676,1539.2 			"/>
			<polygon points="690.8,1543.4 691.5,1542.3 682.9,1536.3 682.2,1537.5 			"/>
			<path d="M856.3,1568c2.2-1.9,3.4-4.7,3.4-7.6c0.1-5.4-4.3-9.8-9.7-9.9H668.5c-2.9,0-5.2,2.4-5.2,5.3v9.2h1.3v-9.2
				c0-2.1,1.7-3.9,3.8-3.9H850c4.6,0.1,8.4,3.9,8.3,8.5c0,2.5-1.1,4.9-2.9,6.5L856.3,1568z"/>
			<path d="M849.5,1551.6l1.2-0.6c-0.2-0.3-3.8-8.1-17.6-14.1c-13.5-5.9-72.8-32.9-73.4-33.2l-0.5,1.3c0.6,0.3,59.9,27.3,73.4,33.2
				C845.8,1544,849.5,1551.5,849.5,1551.6z"/>
			<polygon class="st12" points="973.9,1531.2 890,1518 907.8,1428.4 999,1440.2 			"/>
			<path class="st14" d="M888.6,1551.2h79l32-35.8l58.6,35.8h12.6c4.4,0,8.3,3.1,9.2,7.4c1,5-2.2,9.8-7.1,10.8
				c-0.6,0.1-1.1,0.2-1.7,0.2H887.5c-1.4,0-2.5-1.1-2.4-2.5l0,0v-12.3C885,1552.8,886.6,1551.2,888.6,1551.2z"/>
			<path class="st16" d="M889.3,1551.3V1518c0,0,13.3-18.4,33.5-9c0,0,30.6,22.3,57.6-4.7l67,30.5c0,0,18.4,6.3,23.4,16.4
				L889.3,1551.3z"/>
			<rect x="888.6" y="1518" width="1.3" height="33.1"/>
			<path d="M950.3,1518.4c1.4,0,2.8-0.1,4.2-0.2l-0.2-1.4c-11,1-22-2-31-8.3l-0.8,1.1C930.6,1515.3,940.3,1518.4,950.3,1518.4z"/>
			<polygon points="905.6,1545.1 906.3,1543.9 897.8,1538 897,1539.2 			"/>
			<polygon points="911.7,1543.4 912.5,1542.3 903.9,1536.3 903.2,1537.5 			"/>
			<path d="M1077.3,1568c2.2-1.9,3.4-4.7,3.4-7.6c0.1-5.4-4.3-9.8-9.7-9.9H889.5c-2.9,0-5.2,2.4-5.2,5.3v9.2h1.3v-9.2
				c0-2.1,1.7-3.9,3.8-3.9H1071c4.6,0.1,8.4,3.9,8.3,8.5c0,2.5-1.1,4.9-2.9,6.5L1077.3,1568z"/>
			<path d="M1070.5,1551.6l1.2-0.6c-0.2-0.3-3.8-8.1-17.6-14.1c-13.5-5.9-72.8-32.9-73.4-33.2l-0.5,1.3c0.6,0.3,59.9,27.3,73.4,33.2
				C1066.8,1544,1070.4,1551.5,1070.5,1551.6z"/>
			<path class="st9" d="M839.4,1096.6c-21.3-57-87.7-70.5-87.7-70.5s-141.7-18.8-164.9,20.3c-47.8,80.5,1.4,148.5,43.5,157.8
				c10.2,2.3,27.5,1,46.9,1.6c15.7,0.5,42-0.6,42-0.6L676,1449.6c38.5,9.3,103.6,11.2,103.6,11.2
				C832.2,1336.3,848.3,1120.3,839.4,1096.6z"/>
			<path class="st6" d="M1058.2,1152.4c2.1-66.3-237.4-78.7-237.4-78.7s-134.8-47.3-158-8.3c-47.8,80.5,1.4,148.5,43.5,157.8
				c10.2,2.3,27.5,0.9,46.9,1.6c55.8,1.9,133.5,0.8,145.3,0.7l0,0l37.3-1.3l-43.1,244.4c38.5,9.3,103.6,11.2,103.6,11.2
				C1048.8,1355.4,1057.4,1177.6,1058.2,1152.4z"/>
			<path class="st17" d="M1111.4,917.4l-169.6-23.9c0,0-105.1-133.7-119.4-143.3s-76.4-35.8-183.9-33.4S512,950.9,512,950.9
				s169.3,194.7,176.7,195.8c102,15.8,138.7-72.6,138.7-72.6l-9.9-156.9l54.2,44.3h239.8L1111.4,917.4z"/>
			<path d="M632.1,1085.7c0.7,0,1.2-0.6,1.2-1.3c-0.5-58-3-305.2-3-306c0-0.7-0.6-1.3-1.3-1.3s-1.3,0.6-1.3,1.3l0,0
				c0,0.9,2.5,248.1,3,306.1C630.7,1085.2,631.3,1085.8,632.1,1085.7L632.1,1085.7z"/>
			<path class="st15" d="M751.9,785.9l30.8,407.6c1.5,19.5-3.5,35.2-11,35.2H544.3c-7.6,0-14.9-15.8-16.4-35.2l-30.8-407.6
				c-1.5-19.5,3.5-35.2,11-35.2h227.4C743.1,750.7,750.4,766.4,751.9,785.9z"/>
			<path class="st14" d="M738.8,785.9l30.8,407.6c1.5,19.5-3.5,35.2-11,35.2H531.2c-7.6,0-14.9-15.8-16.4-35.2L484,785.9
				c-1.5-19.5,3.5-35.2,11-35.2h227.4C730,750.7,737.3,766.4,738.8,785.9z"/>
			<path class="st15" d="M914.7,1201.3H556c-6.8,0-12.4,6.1-12.4,13.7s5.5,13.7,12.4,13.7h358.7c6.8,0,12.4-6.1,12.4-13.7
				S921.6,1201.3,914.7,1201.3z"/>
			<path class="st14" d="M769.3,1201.3H556.8c-7.6,0.2-13.5,6.5-13.3,14.1c0.2,7.3,6.1,13.1,13.3,13.3h212.4c0.4,0,2,0,2.4,0
				c6.8-0.6,10.9-6.5,10.9-13.7C782.6,1207.6,776.7,1201.4,769.3,1201.3z"/>
			<polygon class="st15" points="769.4,1191 771.6,1228.7 796.3,1228.7 781.2,1201.3 			"/>
			<path class="st8" d="M804.4,1548h-87.8v-319.3h-19.5V1548h-85.5c-11.9,0-21.6,9.7-21.6,21.6h236
				C826,1557.7,816.3,1548,804.4,1548z"/>
			<path d="M506.3,1095l-22.4-296.3c-3.2-21.5,0.7-36.2,3.3-43c1.4-4.1,5.5-6.7,9.8-6.2h221.5v2.3H496.6c-3.3-0.4-6.4,1.5-7.4,4.7
				c-2.5,6.6-6.3,20.9-3.1,41.9l22.4,296.4L506.3,1095z"/>
			
				<rect x="754.6" y="855.9" transform="matrix(0.9971 -7.550428e-02 7.550428e-02 0.9971 -74.0534 59.9414)" width="2.3" height="307"/>
			<rect x="531.2" y="1227.5" width="383.5" height="2.3"/>
			<rect x="578.1" y="1103.6" transform="matrix(0.8163 -0.5776 0.5776 0.8163 -541.9301 540.7576)" width="2.3" height="37.6"/>
			<rect x="583" y="1133.3" transform="matrix(0.8164 -0.5775 0.5775 0.8164 -558.0751 548.9019)" width="2.3" height="37.7"/>
			<polygon points="804.4,1549.2 715.5,1549.2 715.5,1228.7 717.8,1228.7 717.8,1546.9 804.4,1546.9 			"/>
			<path d="M1110.2,946h2.3v-29.6l-170.1-24c-5.5-7-87.4-110.1-106-129.7c-0.4-0.4-9.6-10.7-17.5-15.8c-7-4.6-34.7-20-97.4-27
				l-0.3,2.3c62.2,7,89.5,22.2,96.4,26.7c7.6,5,16.9,15.4,17,15.5c19.1,20.2,105.3,128.9,106.1,130l0.3,0.4l169,23.8L1110.2,946z"/>
			<path d="M800.4,1114c13.4-11.6,27.4-38.2,28-39.4l0.2-0.3l-9.9-157.2l-2.3,0.2l9.9,156.5c-1.5,2.9-14.9,27.8-27.3,38.4
				L800.4,1114z"/>
			<rect x="838.6" y="894.1" transform="matrix(0.6327 -0.7744 0.7744 0.6327 -415.8388 993.7979)" width="2.3" height="82.4"/>
			<rect x="820.2" y="961.3" transform="matrix(1 -1.047196e-03 1.047196e-03 1 -1.0067 1.2787)" width="800.8" height="1.4"/>
			<rect x="821.3" y="980.4" width="799.7" height="1.4"/>
			<path d="M1563.4,1114.4h1.4c0,0-0.1-131.1-0.1-133.4h-1.4C1563.3,983.3,1563.4,1114.4,1563.4,1114.4z"/>
			<rect x="1291.8" y="981" width="1.4" height="588.6"/>
			<rect x="1312.1" y="981" width="1.4" height="287.5"/>
			<rect x="1428.2" y="1017.8" transform="matrix(0.7449 -0.6672 0.6672 0.7449 -311.2585 1222.9642)" width="30.8" height="1.4"/>
			<polygon points="1429.6,1045.1 1452.6,1024.6 1451.7,1023.6 1428.7,1044.1 			"/>
			<rect x="1055.1" y="1388.3" width="236.9" height="1.4"/>
			<path class="st18" d="M1184.5,644.7c3.7,25.9-14.4,49.9-40.3,53.6c-25.9,3.7-49.9-14.4-53.6-40.3c-3.7-25.9,14.4-49.9,40.3-53.6
				c17-2.4,34.1,4.6,44.4,18.3l11.4-10.8c-21.7-27.1-61.3-31.5-88.5-9.7s-31.5,61.3-9.7,88.5c21.7,27.1,61.3,31.5,88.5,9.7
				c17.4-13.9,26.1-36,22.9-58L1184.5,644.7z"/>
			<path class="st14" d="M1079.5,653.2h115.9c9.7,0,17.5,7.9,17.5,17.6V750c0,19.6-15.8,35.4-35.4,35.4l0,0h-80.3
				c-19.5,0-35.3-15.9-35.3-35.4v-79.2C1062,661.1,1069.8,653.2,1079.5,653.2z"/>
			<path class="st10" d="M1111.1,786.1h-13.7c-19.9,0-36-16.1-36-36v-79.3c0-0.3,0.3-0.6,0.6-0.6c0.3,0,0.6,0.3,0.6,0.6v79.3
				c0,19.2,15.6,34.8,34.8,34.8h13.7c0.3,0,0.6,0.3,0.6,0.6S1111.4,786.1,1111.1,786.1L1111.1,786.1L1111.1,786.1z"/>
			<path class="st10" d="M1213.1,676.1c-0.3,0-0.6-0.3-0.6-0.6l0,0v-4.7c0-9.3-7.6-16.9-16.9-16.9h-35.3c-0.3,0-0.6-0.3-0.6-0.6
				s0.3-0.6,0.6-0.6l0,0h35.3c10,0,18.2,8.1,18.2,18.2v4.7C1213.7,675.8,1213.4,676.1,1213.1,676.1z"/>
			<path class="st10" d="M1200.6,652c-0.3,0-0.6-0.3-0.6-0.6c0-2.8-0.2-5.5-0.6-8.3l-14.8,2.2c-0.3,0-0.7-0.2-0.7-0.5
				c-0.1-0.3,0.2-0.7,0.5-0.7l0,0l16.1-2.4l0.1,0.6c0.4,3,0.6,6,0.7,9.1C1201.2,651.7,1200.9,652,1200.6,652L1200.6,652z"/>
			<path class="st10" d="M1074.6,652c-0.3,0-0.6-0.3-0.6-0.6l0,0c0-35.1,28.5-63.6,63.6-63.6c19.3,0,37.6,8.8,49.7,23.8l0.4,0.5
				l-12.3,11.7l-0.4-0.6c-8.8-11.7-22.6-18.6-37.3-18.5c-0.3,0-0.6-0.3-0.6-0.6l0,0c0-0.3,0.3-0.6,0.6-0.6
				c14.8-0.1,28.8,6.8,37.9,18.5l10.5-9.9c-21.8-26.7-61.1-30.7-87.8-8.9c-14.5,11.8-22.9,29.6-22.9,48.3
				C1075.2,651.7,1074.9,652,1074.6,652z"/>
			<path class="st3" d="M1150.2,708.5c0-7-5.6-12.7-12.6-12.7s-12.7,5.6-12.7,12.6c0,5,2.9,9.6,7.5,11.6v17.7c0,2.8,2.3,5.1,5.1,5.1
				l0,0l0,0c2.8,0,5.1-2.3,5.1-5.1l0,0V720C1147.2,718,1150.2,713.4,1150.2,708.5z"/>
			<path class="st10" d="M1137.5,743.5c-3.2,0-5.8-2.6-5.8-5.8l0,0v-17.3c-6.6-3.2-9.4-11.1-6.3-17.7c3.2-6.6,11.1-9.4,17.7-6.3
				c4.6,2.2,7.6,6.9,7.6,12c0,0.3-0.4,0.6-0.7,0.5c-0.3,0-0.5-0.3-0.5-0.5c0-6.6-5.4-12-12.1-11.9c-6.6,0-12,5.4-11.9,12.1
				c0,4.7,2.8,9,7.1,10.9l0.4,0.2v18.1c0,2.5,2,4.5,4.5,4.5l0,0c0.3,0,0.6,0.4,0.5,0.7C1138,743.2,1137.8,743.4,1137.5,743.5
				L1137.5,743.5z"/>
			<rect x="56.3" y="1568.8" class="st19" width="1794.4" height="7.3"/>
		</g>
	</g>
</g>
</svg>
