<?xml version="1.0" encoding="utf-8"?>
<!-- Generator: Adobe Illustrator 24.2.3, SVG Export Plug-In . SVG Version: 6.00 Build 0)  -->
<svg version="1.1" id="Layer_1" xmlns="http://www.w3.org/2000/svg" xmlns:xlink="http://www.w3.org/1999/xlink" x="0px" y="0px"
	 viewBox="0 0 410.7 415.8" style="enable-background:new 0 0 410.7 415.8;" xml:space="preserve">
<style type="text/css">
	.st0{fill:#F5F5F5;}
	.st1{fill:#E0E0E0;}
	.st2{fill:#E5F1F0;}
	.st3{fill:#455A64;stroke:#455A64;stroke-width:1.5;stroke-miterlimit:10;}
	.st4{fill:#263238;}
	.st5{fill:#E8505B;}
	.st6{fill:#FAFAFA;}
	.st7{fill:#EBEBEB;}
	.st8{fill:#455A64;}
	.st9{opacity:0.2;enable-background:new    ;}
	.st10{opacity:0.1;fill:#FFFFFF;enable-background:new    ;}
	.st11{opacity:0.2;fill:#FFFFFF;enable-background:new    ;}
	.st12{fill:#FFBE9D;}
	.st13{fill:#EB996E;}
	.st14{fill:#FFFFFF;}
	.st15{opacity:0.6;}
</style>
<g id="Layer_2_1_">
	<g id="Character">
		<rect x="135.5" y="28.7" class="st0" width="236.9" height="325.6"/>
		<rect x="135.5" y="28.7" class="st1" width="236.9" height="17.7"/>
		<path class="st0" d="M146.2,37.5c0,1.3-1.1,2.4-2.4,2.4c-1.3,0-2.4-1.1-2.4-2.4c0-1.3,1.1-2.4,2.4-2.4c0,0,0,0,0,0
			C145.2,35.2,146.2,36.2,146.2,37.5z"/>
		<path class="st0" d="M164.1,37c0,1.3-1.1,2.4-2.4,2.4c-1.3,0-2.4-1.1-2.4-2.4c0-1.3,1.1-2.4,2.4-2.4C163,34.6,164.1,35.7,164.1,37
			C164.1,37,164.1,37,164.1,37z"/>
		<path class="st0" d="M155.6,37c0,1.3-1.1,2.4-2.4,2.4c-1.3,0-2.4-1.1-2.4-2.4c0-1.3,1.1-2.4,2.4-2.4c0,0,0,0,0,0
			C154.5,34.6,155.6,35.7,155.6,37C155.6,37,155.6,37,155.6,37z"/>
		<path class="st2" d="M397.9,62.5c0,0-9.4-3.9-15.8,18.1s-8,34.3-8,34.3s-1.9,4.7-5.3,2.5s-8.9-9.2-13.5-6.8
			c-4.8,2.4-5.4,8.4-2.8,16.6s7.6,26.2,8,27.8s0,4.2-2.6,3.1s-18.4-13.1-23.6-5.2s5.7,29.3,6.8,31.7s0.9,3.5-0.2,4.4
			s-6-3.7-10.6-6.9s-10.6-6.1-13.2-1.4s-0.4,22.1,21.2,46.6l10.8,10.7l14.8-3.7c31.2-9.9,42-23.6,42.2-29s-6.4-6-12-5.6
			s-12.2,1.7-12.7,0.4s-0.1-2.4,2.1-3.9s22.6-14.2,22.2-23.6s-20.1-7.3-22.9-7.7s-1.8-2.8-0.6-4s14.8-14,21.2-19.7s9-11.1,6.1-15.6
			c-2.8-4.4-11-1.2-15.1-1.1s-3.2-4.9-3.2-4.9s5-11.4,10.9-33.5s-4.4-23.6-4.4-23.6"/>
		<path class="st2" d="M392.2,82.2c0,0.2-0.1,0.3-0.1,0.5c-0.1,0.3-0.2,0.8-0.3,1.4c-0.3,1.2-0.8,3-1.4,5.2
			c-1.2,4.6-2.9,11.1-5.1,19.2c-4.4,16.2-10.7,38.6-17.7,63.2s-13.4,47-17.9,63.2l-5.3,19.2c-0.6,2.2-1.1,4-1.5,5.2l-0.4,1.4
			c-0.1,0.3-0.1,0.5-0.1,0.5c0-0.2,0.1-0.3,0.1-0.5c0.1-0.3,0.2-0.8,0.3-1.4c0.3-1.2,0.8-3,1.4-5.2c1.2-4.6,3-11.1,5.2-19.2
			c4.4-16.2,10.7-38.6,17.7-63.2s13.4-47,17.9-63.2l5.3-19.2c0.6-2.2,1.1-4,1.5-5.2c0.2-0.6,0.3-1,0.4-1.3
			C392.1,82.3,392.2,82.2,392.2,82.2z"/>
		<path class="st2" d="M362.6,120.6c0.2,0.3,0.4,0.6,0.6,0.9c0.3,0.6,0.8,1.5,1.4,2.7c1.1,2.2,2.6,5.4,4.2,8.9l4,9
			c0.5,1.1,0.9,2,1.2,2.7c0.2,0.3,0.3,0.7,0.4,1c-0.2-0.3-0.4-0.6-0.6-0.9c-0.4-0.6-0.8-1.5-1.4-2.6c-1.1-2.3-2.6-5.4-4.2-8.9
			s-3-6.6-4.1-9l-1.3-2.7C362.8,121.3,362.7,121,362.6,120.6z"/>
		<path class="st2" d="M375.9,145.9c-0.1-0.1,6.3-3.5,14.2-7.5s14.4-7.2,14.5-7.1s-6.3,3.5-14.2,7.5S376,146,375.9,145.9z"/>
		<path class="st2" d="M363.4,183.2c0.4-0.1,0.7-0.2,1.1-0.3l3-0.6c2.5-0.5,6-1.2,9.8-2.1s7.3-1.8,9.7-2.5l2.9-0.8
			c0.4-0.1,0.7-0.2,1.1-0.2c-0.3,0.2-0.6,0.3-1,0.4c-0.7,0.2-1.7,0.6-2.9,1c-2.5,0.8-5.9,1.8-9.7,2.6s-7.3,1.5-9.9,1.9
			c-1.3,0.2-2.3,0.3-3,0.4C364.2,183.2,363.8,183.3,363.4,183.2z"/>
		<path class="st2" d="M346.4,163c0.3,0.2,0.5,0.4,0.8,0.7c0.5,0.5,1.1,1.2,1.9,2.1c1.6,1.8,3.8,4.2,6.1,7s4.5,5.3,6,7.1
			c0.8,0.9,1.4,1.7,1.8,2.2c0.2,0.3,0.4,0.5,0.6,0.8c0,0-0.3-0.2-0.8-0.7s-1.1-1.2-1.9-2.1c-1.6-1.8-3.8-4.2-6.1-7s-4.5-5.2-6-7.1
			c-0.8-0.9-1.4-1.7-1.8-2.2C346.7,163.6,346.5,163.3,346.4,163z"/>
		<path class="st2" d="M331.1,194.6c0.4,0.3,0.7,0.6,1,0.9l2.5,2.7c2,2.3,4.9,5.4,7.9,8.9s5.9,6.7,7.8,9l2.3,2.8
			c0.3,0.3,0.6,0.7,0.8,1.1c-0.3-0.3-0.7-0.6-1-0.9c-0.6-0.7-1.5-1.6-2.5-2.7c-2-2.2-4.9-5.4-7.9-8.9s-5.8-6.7-7.8-9l-2.3-2.8
			C331.7,195.4,331.4,195,331.1,194.6z"/>
		<path class="st2" d="M353.1,219.2c0.4-0.2,0.9-0.3,1.4-0.4l3.8-0.9c3.2-0.7,7.6-1.8,12.4-3s9.2-2.5,12.3-3.4l3.7-1.1
			c0.4-0.2,0.9-0.3,1.4-0.4c-0.4,0.2-0.9,0.4-1.3,0.5c-0.9,0.3-2.1,0.7-3.7,1.2c-3.1,1-7.4,2.3-12.3,3.6s-9.2,2.2-12.5,2.9
			c-1.6,0.3-2.9,0.6-3.8,0.7C354,219.1,353.6,219.2,353.1,219.2z"/>
		<path class="st2" d="M74,25.8c2.7-1.4,5.8-1.7,8.8-0.8c2.9,1,5.5,2.6,7.7,4.7c4.3,4,7,10.1,8.6,15.7c-6.3,1.4-13-2.1-16.3-4.1
			C77.6,38.1,70.2,29.3,74,25.8"/>
		<path class="st2" d="M110.1,46.6c-3.1-1.5-5.2-4.5-5.5-7.9c-0.2-3.4,1-6.8,3.2-9.3c0.9-1.3,2.4-2.1,3.9-2.2
			c1.5,0.1,2.8,1.1,3.4,2.4c0.6,1.3,0.8,2.8,0.6,4.3C115.4,38.9,114.1,43.6,110.1,46.6"/>
		<path class="st2" d="M120.1,62.5c-0.3-0.2-0.6-0.5-0.8-0.8c-0.5-0.6-1.3-1.4-2.2-2.5c-2.3-2.8-4.3-5.8-5.8-9.1
			c-1.6-3.3-2.2-7-1.9-10.6c0.1-1.1,0.4-2.2,0.7-3.2c0.1-0.4,0.3-0.8,0.5-1.1c-0.4,1.4-0.7,2.9-0.9,4.3c-0.2,3.6,0.5,7.1,2,10.3
			c1.5,3.2,3.4,6.3,5.6,9.1l2,2.6C119.6,61.9,119.9,62.2,120.1,62.5z"/>
		<path class="st2" d="M80.2,32c0.2,0.1,0.3,0.1,0.4,0.2l1.2,0.8c1.1,0.7,2.6,1.8,4.5,3.1c3.8,2.6,8.9,6.4,14.4,10.6
			s10.4,8.2,14,11.2l4.2,3.5l1.1,1c0.2,0.2,0.4,0.3,0.4,0.4c-0.2-0.1-0.3-0.2-0.4-0.3l-1.2-0.9c-1.1-0.8-2.5-2-4.3-3.3
			c-3.6-2.8-8.6-6.8-14.1-11s-10.6-8-14.3-10.7l-4.4-3.2l-1.2-0.9C80.3,32.1,80.2,32,80.2,32z"/>
		<path class="st2" d="M108,55.8c-6.4-3.5-14-3.6-20.5-0.5c-1.6,0.8-3.3,2.2-3.2,4s2,2.9,3.8,3.5c7.5,2.1,15.5-0.5,20.3-6.6"/>
		<path class="st2" d="M92.3,58.2c0.3-0.2,0.6-0.4,1-0.6c0.4-0.2,0.8-0.4,1.2-0.6c0.6-0.2,1.1-0.4,1.7-0.6c0.7-0.2,1.4-0.4,2.1-0.5
			c0.8-0.2,1.7-0.3,2.5-0.3c1.9-0.1,3.9,0,5.8,0.3c1.9,0.3,3.8,0.9,5.6,1.6c1.5,0.6,2.9,1.3,4.2,2.2c0.6,0.3,1.1,0.7,1.5,1
			c0.4,0.3,0.7,0.6,1.1,0.9c0.3,0.2,0.6,0.5,0.8,0.8c-0.1,0.1-1.3-1-3.6-2.4c-1.3-0.8-2.7-1.5-4.2-2c-1.8-0.7-3.6-1.2-5.5-1.5
			c-1.9-0.3-3.8-0.4-5.7-0.3c-0.9,0.1-1.7,0.1-2.5,0.3c-0.7,0.1-1.4,0.3-2.1,0.5C93.8,57.5,92.4,58.3,92.3,58.2z"/>
		<path class="st3" d="M395.6,403c0,0.1-88.5,0.3-197.6,0.3S0.5,403.2,0.5,403s88.4-0.3,197.6-0.3S395.6,402.9,395.6,403z"/>
		<path class="st4" d="M47.6,101.6c0,0,0.2,0.2,0.4,0.5l1.1,1.6l4.1,6c0,0,0,0.1,0,0.2c0,0,0,0-0.1,0H41.6c-0.1,0-0.1-0.1-0.1-0.1
			c0,0,0-0.1,0-0.1l0,0l0.3,0.2c-3.1,2.8-6.9,4.8-11,5.8c-2.3,0.5-4.7,0.7-7.1,0.6c-2.6-0.1-5.1-0.7-7.5-1.6c-2.5-1-4.9-2.4-7-4.1
			c-2.2-1.8-4-4-5.5-6.5C-3.5,92.3,0.3,77,12,69.9s27-3.4,34.1,8.3c1.8,2.9,3,6.1,3.5,9.5c0.1,0.4,0.1,0.7,0.2,1.1s0,0.7,0.1,1.1
			c0,0.7,0.1,1.4,0.1,2c0,1.2-0.1,2.3-0.3,3.5c-0.3,1.6-0.7,3.2-1.3,4.7c-0.2,0.5-0.4,0.9-0.5,1.2C47.7,101.3,47.7,101.5,47.6,101.6
			c0-0.1,0.1-0.3,0.1-0.4c0.1-0.3,0.3-0.7,0.4-1.2c0.5-1.5,0.9-3.1,1.2-4.7c0.2-1.1,0.3-2.3,0.3-3.5c0-0.6-0.1-1.3-0.1-2
			c0-0.3,0-0.7-0.1-1.1l-0.2-1.1c-2.1-13.3-14.6-22.5-27.9-20.4c-4.4,0.7-8.5,2.5-11.9,5.4c-9.1,7.6-11.4,20.7-5.4,31
			c1.4,2.4,3.2,4.6,5.4,6.4c2,1.7,4.4,3,6.8,4c2.3,0.9,4.8,1.5,7.3,1.6c2.3,0.2,4.7,0,7-0.5c4-0.9,7.8-2.9,10.9-5.6
			c0.1-0.1,0.2-0.1,0.2,0c0,0.1,0,0.1,0,0.2l0,0l-0.3-0.2c0.2-0.1,0.4-0.1,0.5-0.1h2.8h3l5.2,0.1l-0.1,0.2l-4-6.1l-1-1.6
			C47.7,101.8,47.6,101.6,47.6,101.6z"/>
		<path class="st5" d="M27,89.8c1.9-0.9,3.2-2.8,3.2-4.9c0.1-2.9-2.1-5.2-5-5.3c0,0,0,0,0,0c-2.8,0.1-5.1,2.4-5,5.3
			c-0.1,2.2,1.2,4.1,3.2,5C15.7,91,16,99.4,16,99.4l18.1,0.1C34.1,99.4,34.6,91,27,89.8z"/>
		<rect x="116.3" y="0.3" class="st6" width="236.9" height="325.6"/>
		<rect x="211.8" y="165.9" class="st7" width="101.6" height="16.9"/>
		<path class="st4" d="M221.7,178.4c-1.8,0-3.2-1.5-3.2-3.2s1.5-3.2,3.2-3.2c1.8,0,3.2,1.5,3.2,3.2S223.5,178.4,221.7,178.4
			C221.7,178.4,221.7,178.4,221.7,178.4z M221.7,172.2c-1.7,0-3,1.3-3,3s1.3,3,3,3s3-1.3,3-3C224.7,173.5,223.4,172.2,221.7,172.2
			L221.7,172.2L221.7,172.2z"/>
		<path class="st4" d="M292,175.4c0,0.1-13.5,0.3-30.1,0.3s-30.2-0.1-30.2-0.3s13.5-0.3,30.2-0.3S292,175.3,292,175.4z"/>
		<rect x="116.3" y="28.6" class="st4" width="236.9" height="60.7"/>
		<rect x="116.3" y="0.3" class="st8" width="236.9" height="17.7"/>
		<circle class="st4" cx="124.7" cy="9.1" r="2.4"/>
		<path class="st4" d="M144.9,8.6c0,1.3-1.1,2.4-2.4,2.4s-2.4-1.1-2.4-2.4c0-1.3,1.1-2.4,2.4-2.4S144.9,7.3,144.9,8.6
			C144.9,8.6,144.9,8.6,144.9,8.6z"/>
		<path class="st4" d="M136.4,8.6c0,1.3-1.1,2.4-2.4,2.4s-2.4-1.1-2.4-2.4c0-1.3,1.1-2.4,2.4-2.4S136.4,7.3,136.4,8.6
			C136.4,8.6,136.4,8.6,136.4,8.6z"/>
		<rect x="116.3" y="18" class="st1" width="236.9" height="10.7"/>
		<path class="st4" d="M197.8,129.4c0,0.1-7.9,0.3-17.7,0.3s-17.7-0.1-17.7-0.3s7.9-0.3,17.7-0.3S197.8,129.2,197.8,129.4z"/>
		<path class="st4" d="M197.8,137.7c0,0.1-7.9,0.3-17.7,0.3s-17.7-0.1-17.7-0.3s7.9-0.3,17.7-0.3S197.8,137.6,197.8,137.7z"/>
		<path class="st4" d="M182.4,144.6c-3.3,0.3-6.7,0.3-10.1,0.3c-3.3,0.1-6.7,0-10-0.3c3.3-0.3,6.7-0.3,10-0.3
			C175.7,144.2,179.1,144.3,182.4,144.6z"/>
		<rect x="212.8" y="99.8" class="st7" width="101.1" height="26.7"/>
		<path class="st1" d="M227,139.3c0,2.9-2.4,5.3-5.3,5.3s-5.3-2.4-5.3-5.3c0-2.9,2.4-5.3,5.3-5.3h0C224.6,134.1,227,136.4,227,139.3
			z"/>
		<path class="st4" d="M313.4,135.5c0,0.1-16.9,0.3-37.8,0.3s-37.8-0.1-37.8-0.3s16.9-0.3,37.8-0.3S313.4,135.4,313.4,135.5z"/>
		<path class="st4" d="M277,143c0,0.1-8.8,0.3-19.6,0.3s-19.6-0.1-19.6-0.3s8.8-0.3,19.6-0.3C268.2,142.7,277,142.9,277,143z"/>
		<rect x="293.3" y="151.6" class="st5" width="20.1" height="2.8"/>
		<rect x="293.3" y="216" class="st5" width="20.1" height="2.8"/>
		<path class="st4" d="M293.3,191.2c0,0.1-17.6,0.3-39.4,0.3s-39.4-0.1-39.4-0.3s17.6-0.2,39.4-0.2S293.3,191.1,293.3,191.2z"/>
		<path class="st4" d="M293.3,198c0,0.1-17.6,0.3-39.4,0.3s-39.4-0.1-39.4-0.3s17.6-0.3,39.4-0.3S293.3,197.9,293.3,198z"/>
		<path class="st4" d="M293.3,204.7c0,0.1-17.6,0.3-39.4,0.3s-39.4-0.1-39.4-0.3s17.6-0.3,39.4-0.3S293.3,204.6,293.3,204.7z"/>
		<path class="st4" d="M239.9,216.9c0,0.1-5.5,0.3-12.3,0.3s-12.3-0.1-12.3-0.3s5.5-0.3,12.3-0.3S239.9,216.8,239.9,216.9z"/>
		<rect x="211.8" y="233.9" class="st8" width="101.6" height="60.9"/>
		<polygon class="st4" points="211.8,294.8 253.9,267.2 266.9,276.4 293.3,258.7 313.4,274.3 313.4,294.8 		"/>
		<circle class="st4" cx="269.8" cy="254.9" r="7.2"/>
		<rect x="160.2" y="160" class="st1" width="10.6" height="10.6"/>
		<rect x="173.1" y="160" class="st7" width="10.6" height="10.6"/>
		<rect x="186.1" y="160" class="st7" width="10.6" height="10.6"/>
		<rect x="160.2" y="172.6" class="st7" width="10.6" height="10.6"/>
		<rect x="173.1" y="172.6" class="st0" width="10.6" height="10.6"/>
		<rect x="186.1" y="172.6" class="st1" width="10.6" height="10.6"/>
		<rect x="160.2" y="185.3" class="st1" width="10.6" height="10.6"/>
		<rect x="173.1" y="185.3" class="st7" width="10.6" height="10.6"/>
		<rect x="186.1" y="185.3" class="st1" width="10.6" height="10.6"/>
		
			<rect x="150.6" y="42.4" transform="matrix(1 -6.108614e-03 6.108614e-03 1 -0.4353 1.1007)" class="st5" width="58.8" height="58.8"/>
		<path class="st9" d="M192.4,73.1c-0.4,0.5-0.3,1.1,0.1,1.5c0.5,0.4,1.1,0.3,1.5-0.1c0.4-0.4,0.3-1.1-0.1-1.5
			C193.6,72.6,192.9,72.6,192.4,73.1C192.5,73,192.4,73.1,192.4,73.1z"/>
		<path class="st9" d="M195,71.9c-0.4-0.3-1-0.5-1.5-0.5c-0.5,0-1.1,0.2-1.5,0.5c-0.3,0.2-0.4,0.5-0.4,0.5s0.9-0.4,1.9-0.4
			s1.8,0.6,1.9,0.4S195.3,72.2,195,71.9z"/>
		<path class="st9" d="M182.9,73.4c-0.5-0.3-1.2-0.1-1.5,0.4c-0.3,0.5-0.1,1.2,0.4,1.5c0.5,0.3,1.2,0.1,1.5-0.4c0,0,0,0,0,0
			C183.6,74.4,183.4,73.8,182.9,73.4z"/>
		<path class="st9" d="M183.9,72.9c-0.9-0.7-2.1-0.7-3,0c-0.3,0.2-0.4,0.5-0.4,0.5s0.9-0.4,1.9-0.4s1.8,0.6,1.9,0.4
			S184.2,73.2,183.9,72.9z"/>
		<path class="st9" d="M190.1,78.2c-0.6-1.8-1.4-3.6-2.3-5.2c0.4,1.9,1,3.7,1.8,5.4l0.8,2.1c0.1,0.2,0.2,0.5,0.2,0.8
			c0,0.1-0.2,0.2-0.5,0.2c-0.6,0-1.1,0.1-1.7,0.4c0.6,0.1,1.1,0.1,1.7,0c0.2,0,0.3,0,0.5-0.1c0.2-0.1,0.4-0.2,0.5-0.4
			c0.1-0.4,0-0.8-0.1-1.1C190.6,79.6,190.4,78.9,190.1,78.2z"/>
		<path class="st10" d="M179.4,91.7c0,0,2.3,5.3,9.7,4.6v-1v-0.9C185.7,94.5,182.3,93.6,179.4,91.7z"/>
		<path class="st11" d="M195.4,64.3l-0.1,0.1h-0.1c-3.2,1.2-6.7,1.2-9.8-0.2c-4-1.6-8.6-2.2-9.5-1.3s-0.8,4.8-4.5,6.3
			c0,0,0.9,7.3-2.1,7.5l0,0c0,0,0,0-0.1,0c-0.1-1.7-0.1-3.2-0.1-3.2c-0.2-0.1-0.4-0.1-0.6-0.1c-0.7-0.1-1.5-0.1-2.2,0.1
			c-1.2,0.3-2.2,1.3-2.1,3.7c0.1,4,3.3,4.1,4.7,3.8l1,20.4l19.3-0.1c0.1-1.6,0.1-2.7,0-4.1v-0.7c-7.4,0.7-9.7-4.6-9.7-4.6
			c2.9,1.8,6.3,2.8,9.7,2.7v0.1c0.1,0,7.4-1.3,7.4-8.6C196.6,80.3,195.8,69.4,195.4,64.3z M167.7,79.1c-0.2,0.2-0.5,0.2-0.8,0.2
			c-0.8-0.4-1.4-1.2-1.4-2.1c0-0.5,0-1,0.2-1.4c0.1-0.4,0.5-0.7,0.9-0.8c0.2,0,0.4,0,0.5,0.1c0.1,0.1,0.2,0.2,0.2,0.3
			c0.1,0.2,0,0.3-0.1,0.3s0-0.1-0.1-0.2c-0.1-0.2-0.3-0.3-0.5-0.2c-0.3,0.1-0.6,0.4-0.6,0.7c-0.2,0.4-0.2,0.8-0.2,1.3
			c0,0.8,0.4,1.6,1.1,2C167.2,79.1,167.4,79.1,167.7,79.1c0.1-0.1,0.2-0.2,0.2-0.2S167.9,78.9,167.7,79.1z M192.6,69.7
			c1.5-0.1,2.5,0.6,2.3,0.9s-1.1,0.1-2.3,0.2s-2.1,0.3-2.3,0.1S191.2,69.8,192.6,69.7L192.6,69.7z M179,69.9c0-0.3,1.1-0.4,2.3-0.5
			l1.5-0.1c0.4,0,0.6,0,0.7,0.1s-0.1,0.4-0.5,0.6c-0.5,0.3-1.1,0.4-1.7,0.4C180,70.6,179,70.2,179,69.9z M183.3,74.9
			c-0.3,0.5-1,0.7-1.5,0.4c-0.5-0.3-0.7-0.9-0.4-1.5c0.3-0.5,0.9-0.7,1.5-0.4c0,0,0.1,0,0.1,0.1C183.4,73.8,183.6,74.4,183.3,74.9
			L183.3,74.9z M184.3,73.5c-0.1,0.1-0.9-0.4-1.9-0.4s-1.8,0.5-1.9,0.4s0.1-0.3,0.4-0.5c0.9-0.7,2.1-0.7,3,0
			C184.2,73.2,184.3,73.4,184.3,73.5L184.3,73.5z M187.1,84.5c-1.4-0.5-2-1.6-1.8-1.6s0.8,0.7,2,1.1c0.7,0.2,1.5,0.3,2.3,0.3
			C188.8,84.8,187.9,84.9,187.1,84.5L187.1,84.5z M191.1,81.4c-0.1,0.2-0.2,0.4-0.5,0.4c-0.2,0-0.3,0.1-0.5,0.1
			c-0.6,0.1-1.1,0.1-1.7,0c0.5-0.2,1.1-0.3,1.7-0.4c0.3,0,0.5-0.1,0.5-0.2c0-0.3-0.1-0.5-0.2-0.8l-0.8-2.1c-0.8-1.8-1.4-3.6-1.8-5.5
			c0.9,1.7,1.7,3.4,2.3,5.2c0.3,0.7,0.5,1.4,0.8,2.1C191,80.7,191.1,81,191.1,81.4L191.1,81.4z M194.1,74.5
			c-0.4,0.4-1.1,0.5-1.5,0.1c-0.4-0.4-0.5-1.1-0.1-1.5c0.4-0.4,1.1-0.5,1.5-0.1C194.4,73.4,194.4,74.1,194.1,74.5L194.1,74.5z
			 M195.4,72.5c-0.1,0.1-0.9-0.4-1.9-0.4s-1.8,0.5-1.9,0.4s0.1-0.3,0.4-0.5c0.4-0.3,1-0.5,1.5-0.5c0.5,0,1.1,0.2,1.5,0.5
			C195.3,72.2,195.4,72.4,195.4,72.5L195.4,72.5z"/>
		<path class="st10" d="M167,79c-0.7-0.4-1.1-1.2-1.1-2c0-0.4,0-0.9,0.2-1.3c0.1-0.3,0.3-0.6,0.6-0.7c0.2-0.1,0.4,0,0.5,0.2
			c0.1,0.1,0.1,0.2,0.1,0.2s0.1-0.1,0.1-0.3c0-0.1-0.1-0.2-0.2-0.3c-0.1-0.1-0.3-0.1-0.5-0.1c-0.4,0.1-0.8,0.4-0.9,0.8
			c-0.2,0.4-0.3,0.9-0.2,1.4c0,0.9,0.5,1.8,1.4,2.1c0.3,0.1,0.6,0,0.8-0.2c0.2-0.1,0.2-0.2,0.2-0.3s-0.1,0.1-0.2,0.1
			C167.4,79,167.2,79,167,79z"/>
		<path class="st9" d="M168.8,58.6c0.1-0.1-0.4-0.8-1.4-1.1s-1.9,0-1.8,0.2s0.8,0,1.6,0.3S168.7,58.7,168.8,58.6z"/>
		<path class="st9" d="M169.6,58.9c-0.3-0.7-0.5-1.4-0.7-2.1c-0.2-1.2-0.2-2.3-0.4-2.3c-0.3,0.8-0.3,1.6-0.1,2.4
			C168.5,57.6,168.9,58.4,169.6,58.9C169.5,58.9,169.6,58.9,169.6,58.9C169.6,58.9,169.6,58.9,169.6,58.9z"/>
		<path class="st9" d="M192.7,70.8c1.2-0.1,2.2,0.1,2.3-0.2s-0.9-1-2.3-0.9s-2.4,0.9-2.2,1.1S191.5,70.8,192.7,70.8z"/>
		<path class="st9" d="M181.3,70.5c0.6,0,1.2-0.1,1.7-0.4c0.4-0.2,0.6-0.5,0.5-0.6s-0.4-0.1-0.7-0.1l-1.5,0.1
			c-1.2,0.1-2.3,0.2-2.3,0.5S180,70.6,181.3,70.5z"/>
		<path class="st9" d="M185.2,82.9c-0.1,0,0.5,1.1,1.8,1.6c0.8,0.4,1.7,0.3,2.4-0.1c-0.8-0.1-1.5-0.2-2.3-0.3
			C186,83.6,185.4,82.8,185.2,82.9z"/>
		<path class="st9" d="M195.9,52.2c-2.6-2.4-6.4-2.9-9.6-1.3c-1.4,0.7-2.6,1.9-4.1,2.4c-1.8,0.6-3.8,0.1-5.6-0.1s-4.1,0.2-5.1,1.9
			c-0.6,1-0.6,2.5-1.4,3.3c-0.1,0.2-0.3,0.3-0.5,0.4c0,0,0,0,0,0.1s0,0-0.1,0c-1.2,0.7-2.8,0.5-4.2,1c-1.6,0.6-2.7,2-2.9,3.7
			c-0.1,1.6,0.5,3.3,1.7,4.4c0.8,0.5,1.5,1.2,2,2c0.4,1.1,0.4,2.2,0.1,3.3c0.7-0.2,1.4-0.2,2.2-0.1c0.2,0,0.4,0.1,0.6,0.1
			c0,0,0.1,1.6,0.1,3.2c0,0,0.1,0,0.1,0l0,0c2.9-0.2,2.1-7.5,2.1-7.5c3.7-1.5,3.6-5.5,4.5-6.3s5.5-0.3,9.5,1.3
			c3.1,1.4,6.6,1.4,9.8,0.2h0.1l0.1-0.1l0.2-0.2c0.1,0,0.1-0.1,0.2-0.1l0,0c0.8-0.6,1.4-1.4,1.9-2.3
			C199.1,58.4,198.4,54.7,195.9,52.2z"/>
		<path class="st4" d="M353,0.3l0.2,0.2l-236.9,0l0,0l0.3-0.3c0,121.7,0,234.3,0,325.6l-0.2-0.2l236.9,0.2l-236.9,0.2h-0.2v-0.2
			c0-91.3,0-203.9,0-325.6V0h0.3h236.8h0.2v0.3c-0.1,192.6-0.2,323.5-0.2,325.6"/>
		<path class="st12" d="M32.5,228.3l1.3,2.7c0.5,1.6,1.2,3.2,2.1,4.7c0.4,0.8,0.9,1.4,1.6,2c0.8,0.7,1.6,1.4,2.5,1.8
			c0.5,0.2,0.8,0.8,0.5,1.3c-0.1,0.2-0.3,0.4-0.5,0.5c-0.9,0.2-3.4-0.7-5.5-3s-1.8,2.6-1.7,4.4s0.1,7.4-0.4,7.8
			c-0.8,0.7-1.6,0-1.7-1.8s-0.6-7.2-1.5-7.1s-0.4,9.2-0.4,9.2s0.4,1.9-0.6,2.1c-2,0.3-1.9-9.5-1.8-10.4c0-0.6-1-0.6-1,0.1
			s0.8,9.1-1.2,9.4c-1.5,0.2,0-8-1.1-9.6s-0.5,6.4-2,6.5c-0.5,0-1,0-0.6-4.6s3.3-17.5,3.3-17.5l8.9,1.6"/>
		<path class="st12" d="M68,160.1c0,0-28,27.3-28.6,30.9s-4.7,42.8-4.7,42.8l-12.8-1.3c0,0-1.2-48.4,2.8-53.3s20-23.4,20-23.4
			L68,160.1z"/>
		<path class="st13" d="M25.9,184.3c0,0-0.2-0.1-0.4-0.4c-0.7-1.1-0.4-2.6,0.6-3.3c0.8-0.6,1.8-0.7,2.6-0.3c0.5,0.2,0.8,0.6,1,1.1
			c0.2,0.4,0.2,0.9,0,1.4c-0.3,0.7-1.2,1-1.9,0.7c0,0,0,0-0.1,0c-0.5-0.3-0.7-0.9-0.5-1.4c0.1-0.4,0.3-0.4,0.3-0.4s-0.1,0.1-0.2,0.5
			c-0.1,0.4,0.1,0.9,0.5,1.1c0.6,0.3,1.2,0,1.5-0.6c0,0,0,0,0,0c0.1-0.3,0.1-0.7,0-1c-0.2-0.4-0.4-0.7-0.8-0.8
			c-0.7-0.3-1.6-0.3-2.2,0.2c-0.5,0.4-0.9,1-1,1.6C25.4,183.2,25.6,183.8,25.9,184.3z"/>
		<path class="st8" d="M126.9,90.3c-0.2,0.5-2.7,35.9-2.7,35.9l14.2-1.1l3.5-30.8L126.9,90.3z"/>
		<polygon class="st4" points="124.2,126.2 122.3,125.6 125.1,89.8 127.1,90.4 		"/>
		<circle class="st4" cx="135" cy="98.7" r="0.8"/>
		<path class="st12" d="M119.5,143.7l25,6.5l-3.9-29.6l0,0l-0.5-1.4l-9.2-1.4l1.1-6.8c0.5-3,3.4-5,6.4-4.5c0.2,0,0.3,0.1,0.5,0.1
			l3,0.8c2.2,0.6,4,2,5,4c1.7,3.4,3.4,7.1,3.3,6.8l0,0l13.4,36.3c2.4,4.8,1.8,10.5-1.5,14.7c-4.3,5.6-14.8,1.7-19.7,0.8l-32-7.1
			L119.5,143.7z"/>
		<path class="st4" d="M69.6,107.6c0.2,0.6,0.1,1.2-0.4,1.7c-0.5,0.4-1.1,0.5-1.7,0.3c-1-0.5-1.3-1.9-1.1-3s0.5-2.4-0.1-3.4
			c-0.5-0.7-1.1-1.3-1.9-1.8c-1.1-1.1-1.7-2.6-1.6-4.1c0.2-1.6,1.2-2.9,2.7-3.4c1.5-0.5,3.4-0.1,4.4-1.3c0.8-0.8,0.8-2.1,1.3-3.1
			c0.9-1.5,2.9-1.9,4.7-1.7s3.6,0.6,5.2,0.1c1.4-0.4,2.5-1.5,3.8-2.2c3.8-2,8.4-0.5,10.4,3.2c1.1,2.1,1.2,4.6,0.2,6.8
			c-0.4,1.1-1.2,1.9-2.2,2.5"/>
		<path class="st12" d="M71.3,137.4l16.6-1.3c0.1-1.9,0-9.4,0-9.4s6.9-1.1,7-8S93.7,96,93.7,96l0,0c-8-3.4-17.2-2.3-24.1,3l-1,0.8
			L71.3,137.4z"/>
		<path class="st4" d="M92.1,107.9c-0.4-0.4-0.4-1-0.1-1.4c0.4-0.4,1-0.4,1.4-0.1c0,0,0,0,0,0c0.4,0.4,0.4,1,0.1,1.4
			C93.2,108.2,92.5,108.2,92.1,107.9C92.1,107.9,92.1,107.9,92.1,107.9z"/>
		<path class="st4" d="M93.8,106.3c-0.1,0.1-0.8-0.4-1.7-0.4s-1.6,0.5-1.7,0.4s0-0.3,0.4-0.5c0.4-0.3,0.9-0.5,1.4-0.4
			c0.5,0,1,0.2,1.4,0.5C93.8,106,93.9,106.2,93.8,106.3z"/>
		<path class="st4" d="M82.9,107.1c0.5,0.3,0.6,0.9,0.3,1.4c-0.3,0.5-0.9,0.6-1.4,0.3c-0.5-0.3-0.6-0.9-0.3-1.4c0,0,0,0,0,0
			C81.8,107,82.4,106.8,82.9,107.1z"/>
		<path class="st4" d="M83.5,107.1c-0.1,0.1-0.8-0.4-1.7-0.4s-1.6,0.5-1.8,0.4s0.1-0.3,0.4-0.5c0.4-0.3,0.9-0.4,1.4-0.4
			c0.5,0,1,0.2,1.4,0.5C83.4,106.9,83.6,107.1,83.5,107.1z"/>
		<path class="st4" d="M87.3,115c0.5-0.2,1-0.3,1.5-0.3c0.2,0,0.4-0.1,0.5-0.2c0-0.2-0.1-0.5-0.2-0.7c-0.2-0.6-0.5-1.3-0.8-1.9
			c-0.7-1.6-1.3-3.3-1.6-5.1c0.9,1.6,1.6,3.2,2.1,4.9c0.2,0.7,0.5,1.3,0.7,1.9c0.1,0.3,0.2,0.7,0.1,1c-0.1,0.2-0.2,0.3-0.4,0.4
			c-0.1,0-0.3,0.1-0.4,0.1C88.3,115.1,87.8,115.1,87.3,115z"/>
		<path class="st14" d="M84.2,116c1.5,0.7,3,1.1,4.7,1.3c-0.7,1-2,1.4-3.1,1C83.7,117.7,84.2,116,84.2,116z"/>
		<path class="st13" d="M87.9,126.6c-3.2,0.1-6.3-0.8-9-2.6c0,0,2.1,5,9,4.3V126.6z"/>
		<path class="st4" d="M93.9,97.8c0,0-4,2.3-9.7,0c-3.7-1.5-7.9-2.1-8.8-1.3s-0.8,4.5-4.2,5.8c0,0,0.8,7-2.1,7s-1.9-11-1.9-11
			l6.6-3.8l7.4-2l7.1,0.5l5.6,1.1V97.8z"/>
		<path class="st12" d="M69.5,107c-0.1,0-4.7-1.4-4.6,3.3s4.8,3.6,4.8,3.4S69.5,107,69.5,107z"/>
		<path class="st13" d="M68.3,112c0,0-0.1,0.1-0.2,0.1c-0.2,0.1-0.4,0.1-0.6,0c-0.6-0.4-1-1.1-1-1.8c0-0.4,0-0.8,0.2-1.2
			c0.1-0.3,0.3-0.5,0.6-0.7c0.2-0.1,0.4,0,0.5,0.2c0.1,0.1,0,0.2,0.1,0.2s0.1-0.1,0.1-0.3c0-0.1-0.1-0.2-0.2-0.3
			c-0.1-0.1-0.3-0.1-0.4-0.1c-0.4,0.1-0.7,0.4-0.8,0.8c-0.2,0.4-0.3,0.9-0.2,1.3c0,0.9,0.5,1.7,1.3,2c0.3,0.1,0.5,0,0.8-0.1
			C68.3,112.1,68.3,112,68.3,112z"/>
		<path class="st4" d="M66.3,92.4c-0.1-0.1,0.7-0.5,1.7-0.2s1.4,1,1.3,1.1s-0.7-0.4-1.4-0.6S66.3,92.5,66.3,92.4z"/>
		<path class="st4" d="M69,89.4c0.2,0,0.2,1,0.4,2.1s0.7,1.9,0.6,2s-0.9-0.7-1.1-1.9C68.7,90.9,68.7,90.1,69,89.4z"/>
		<path class="st4" d="M89.2,104.8c-0.2-0.2,0.7-1,2.1-1.1s2.3,0.6,2.2,0.9s-1,0.1-2.1,0.2S89.3,105,89.2,104.8z"/>
		<path class="st4" d="M78.6,103.9c-0.2-0.2,0.7-1,2.1-1.1s2.3,0.6,2.2,0.9s-1,0.1-2.1,0.2S78.8,104.1,78.6,103.9z"/>
		<path class="st8" d="M39.6,394.9l-1.6,6.9c0,0-11.3,14.6-14.8,13.9c-2.3-0.5,0.5-4.3,4.8-15.4l0.9-4.6L39.6,394.9z"/>
		<path class="st4" d="M22.8,413.6c0.1,0.2,0.4,0.4,0.6,0.6c0.7,0.3,1.5,0.2,2.1-0.3c2-1.7,3.9-3.4,5.6-5.3c2.1-2.2,3.8-4.3,5.1-5.9
			c0.5-0.7,1-1.3,1.4-1.9l0.4-0.5c0-0.1,0.1-0.1,0.2-0.2c0,0.1-0.1,0.1-0.1,0.2c-0.1,0.2-0.2,0.3-0.4,0.5c-0.3,0.5-0.8,1.1-1.4,1.9
			c-1.6,2.1-3.2,4-5,5.9c-1.8,1.9-3.7,3.7-5.7,5.3c-0.4,0.3-0.8,0.4-1.3,0.5c-0.3,0-0.7-0.1-1-0.2c-0.2-0.1-0.4-0.3-0.5-0.4
			C22.9,413.7,22.8,413.7,22.8,413.6z"/>
		<path class="st4" d="M24.4,408.9c0.3-0.1,0.6-0.2,0.9-0.1c0.8,0.1,1.5,0.3,2.1,0.7c0.7,0.4,1.2,0.9,1.6,1.6
			c0.1,0.3,0.2,0.6,0.2,0.9c0,0-0.1-0.3-0.4-0.8c-0.4-0.6-0.9-1.2-1.5-1.5c-0.6-0.4-1.3-0.7-2-0.8C25,408.9,24.7,408.9,24.4,408.9z"
			/>
		<path class="st4" d="M35.1,405.5c0,0-0.1-0.1-0.1-0.3c-0.1-0.3-0.2-0.6-0.2-1c-0.2-1.1,0-2.2,0.5-3.1c0.5-1,1.3-1.8,2.3-2.2
			c0.3-0.1,0.6-0.2,0.9-0.3c0.1,0,0.2,0,0.4,0c-0.4,0.1-0.8,0.3-1.2,0.4c-0.9,0.5-1.7,1.2-2.2,2.2c-0.5,0.9-0.7,2-0.6,3
			C34.9,405,35.1,405.5,35.1,405.5z"/>
		<path class="st4" d="M38.9,396.1c0,0-0.2,1-0.4,2.2c-0.1,0.7-0.3,1.5-0.6,2.2c0,0,0.2-1,0.4-2.2C38.4,397.5,38.6,396.8,38.9,396.1
			z"/>
		<path class="st4" d="M27.9,401.3c0.5-0.1,1-0.1,1.5,0c0.5,0.1,0.9,0.3,1.3,0.6c0,0-0.6-0.2-1.4-0.4S27.9,401.4,27.9,401.3z"/>
		<path class="st4" d="M27.6,402.5c0.4-0.2,0.8-0.2,1.2,0c0.4,0.1,0.8,0.3,1.1,0.6c0,0-0.5-0.2-1.1-0.4S27.6,402.6,27.6,402.5z"/>
		<path class="st4" d="M26.7,404c0.8-0.4,1.8-0.2,2.3,0.5c-0.3-0.2-0.7-0.4-1.1-0.5C27.5,404,27.1,404,26.7,404z"/>
		<path class="st4" d="M28.6,400.8c0,0,0.5-0.1,1.3-0.5c0.5-0.2,0.9-0.4,1.4-0.7c0.3-0.1,0.5-0.3,0.7-0.5c0.2-0.2,0.5-0.4,0.5-0.7
			s-0.3-0.4-0.6-0.4c-0.3,0.1-0.5,0.3-0.7,0.5c-0.4,0.4-0.8,0.8-1.1,1.1c-0.6,0.6-0.9,1.1-0.9,1.1c0-0.1,0.1-0.2,0.2-0.3
			c0.1-0.2,0.3-0.5,0.6-0.8c0.3-0.4,0.6-0.8,1-1.1c0.2-0.2,0.5-0.4,0.8-0.5c0.3-0.1,0.7,0.1,0.8,0.4c0,0,0,0.1,0,0.1
			c0,0.4-0.2,0.7-0.6,0.9c-0.3,0.2-0.5,0.3-0.8,0.5c-0.4,0.2-0.9,0.5-1.4,0.6c-0.3,0.1-0.7,0.2-1,0.3
			C28.9,400.8,28.7,400.8,28.6,400.8z"/>
		<path class="st4" d="M29.2,400.7c0,0-0.1-0.5-0.2-1.3c-0.1-0.4-0.2-0.9-0.4-1.3c-0.1-0.2-0.2-0.5-0.4-0.7
			c-0.2-0.2-0.4-0.4-0.6-0.2s-0.2,0.4-0.2,0.7c0,0.3,0.1,0.5,0.2,0.8c0.2,0.4,0.4,0.8,0.7,1.1C28.8,400.4,29.3,400.7,29.2,400.7
			c-0.1,0-0.2-0.1-0.3-0.2c-0.3-0.2-0.5-0.4-0.7-0.6c-0.3-0.3-0.6-0.7-0.8-1.2c-0.1-0.3-0.2-0.5-0.2-0.8c-0.1-0.3,0-0.7,0.3-0.9
			c0.3-0.1,0.7,0,0.9,0.3c0.2,0.2,0.3,0.5,0.4,0.7c0.2,0.4,0.3,0.9,0.4,1.4c0,0.4,0.1,0.7,0.1,0.9S29.2,400.7,29.2,400.7z"/>
		<path class="st8" d="M95.7,398.4l0.1-9.2L78.5,389l-0.2,13.5l1.1,0.1c4.8,0.3,24.2,1.3,27.4,0.4
			C110.3,401.9,95.7,398.4,95.7,398.4z"/>
		<path class="st4" d="M78.1,402.1h0.3l0.8,0.1l3.1,0.2c2.6,0.1,6.3,0.3,10.3,0.3s7.7,0,10.3,0l3.1-0.1h0.9h0.3c-0.1,0-0.2,0-0.3,0
			h-0.8H103c-2.6,0-6.3,0-10.3,0s-7.7-0.2-10.3-0.2l-3.1-0.1h-0.9L78.1,402.1z"/>
		<path class="st4" d="M101.3,402.8c0.2-1.1,0.8-2,1.7-2.7C101.9,400.6,101.2,401.7,101.3,402.8z"/>
		<path class="st4" d="M96.2,400.2c0.1,0,0.3-0.3,0.6-0.6s0.4-0.7,0.4-0.8s-0.3,0.3-0.6,0.6C96.4,399.7,96.3,399.9,96.2,400.2z"/>
		<path class="st4" d="M94.8,399.5c0,0,0.3-0.1,0.6-0.4s0.5-0.5,0.5-0.6s-0.3,0.1-0.6,0.4S94.8,399.4,94.8,399.5z"/>
		<path class="st4" d="M94,397.8c0.3,0.1,0.6,0.2,0.9,0.1c0.3,0,0.6,0,0.9-0.1c-0.3-0.1-0.6-0.1-0.9-0.1
			C94.6,397.7,94.3,397.7,94,397.8z"/>
		<path class="st4" d="M93.7,396.7c0.3,0.2,0.6,0.3,1,0.3c0.3,0.1,0.7,0,1-0.1c-0.3-0.1-0.7-0.1-1-0.1
			C94.4,396.7,94,396.7,93.7,396.7z"/>
		<path class="st4" d="M96.8,398.7c0.4,0.1,0.7,0.1,1.1,0c0.4,0,0.8-0.1,1.2-0.2c0.2-0.1,0.5-0.2,0.7-0.3c0.1-0.1,0.2-0.2,0.3-0.3
			c0-0.2,0-0.3-0.2-0.5c-0.9-0.5-1.9-0.2-2.5,0.6c-0.2,0.2-0.3,0.5-0.4,0.7c0,0.1,0,0.2,0,0.3c0.1-0.3,0.3-0.7,0.5-0.9
			c0.3-0.3,0.6-0.5,1-0.6c0.4-0.1,0.9-0.1,1.3,0.1c0.2,0.1,0.1,0.3-0.1,0.5c-0.2,0.1-0.4,0.2-0.6,0.3c-0.4,0.1-0.8,0.2-1.2,0.3
			C97.2,398.7,96.8,398.7,96.8,398.7z"/>
		<path class="st4" d="M97.1,398.8c0.1-0.2,0.2-0.5,0.1-0.8c0-0.3-0.1-0.6-0.3-0.8c-0.2-0.3-0.5-0.6-0.9-0.6
			c-0.2,0.1-0.4,0.3-0.3,0.5c0,0.2,0.1,0.3,0.2,0.5c0.1,0.2,0.3,0.5,0.5,0.7C96.6,398.5,96.8,398.6,97.1,398.8
			c-0.1,0-0.3-0.2-0.6-0.6c-0.2-0.2-0.3-0.4-0.4-0.7c-0.2-0.2-0.2-0.7,0-0.7s0.6,0.2,0.7,0.5c0.2,0.2,0.3,0.5,0.3,0.7
			C97.1,398.3,97.1,398.5,97.1,398.8z"/>
		<path class="st4" d="M78.5,397.4c0,0,0.5,0,1.3,0.1c1,0.1,2,0.5,2.8,1.2c0.8,0.7,1.4,1.5,1.7,2.5c0.3,0.7,0.3,1.2,0.3,1.2
			c0-0.1,0-0.2,0-0.4c0-0.3-0.1-0.6-0.2-0.9c-0.6-2.1-2.4-3.6-4.6-3.8c-0.3,0-0.6,0-0.9,0C78.7,397.3,78.6,397.3,78.5,397.4z"/>
		<path class="st4" d="M80.3,390.2c-0.2,2.4-0.3,4.7-0.2,7.1C80.4,394.9,80.4,392.6,80.3,390.2z"/>
		<path class="st4" d="M86.7,400.8c0.8,0.2,1.7,0.3,2.5,0.3c0.8,0.1,1.7,0,2.5-0.2c0-0.1-1.1,0-2.5,0S86.8,400.7,86.7,400.8z"/>
		<path class="st4" d="M83.4,400.7c0,0,0.1,0.2,0.2,0.5s0.2,0.5,0.2,0.5s0.1-0.3,0-0.6S83.4,400.7,83.4,400.7z"/>
		<path class="st4" d="M82.1,399.1c0,0,0.1,0.2,0.2,0.4s0.4,0.3,0.4,0.3s-0.1-0.2-0.2-0.4S82.2,399.1,82.1,399.1z"/>
		<path class="st4" d="M80.3,398.4c0,0.1,0.2,0.1,0.5,0.1s0.4,0.2,0.5,0.2s-0.1-0.3-0.4-0.4S80.3,398.3,80.3,398.4z"/>
		<path class="st4" d="M79,398c0,0.1,0.1,0.1,0.2,0.2s0.3,0.1,0.3,0s-0.1-0.1-0.2-0.2S79,398,79,398z"/>
		<polyline class="st4" points="107.4,215.8 99.4,394.5 72.6,395 77,245.5 46.8,396.2 21.3,396.2 55.4,215.8 		"/>
		<path class="st8" d="M27.8,393.6c0.1,0,0.2,0.4,0.1,0.8s-0.2,0.7-0.4,0.7s-0.2-0.4-0.1-0.8S27.6,393.6,27.8,393.6z"/>
		<path class="st8" d="M28.7,387.7c0.1,0,0.1,0.7,0,1.5s-0.4,1.5-0.5,1.4s-0.1-0.7,0-1.5S28.6,387.7,28.7,387.7z"/>
		<path class="st8" d="M29.7,381.9c0.1,0,0.1,0.7,0,1.5s-0.4,1.5-0.5,1.4s-0.1-0.7,0-1.5S29.6,381.9,29.7,381.9z"/>
		<path class="st8" d="M30.7,376c0.1,0,0.1,0.7,0,1.5s-0.4,1.5-0.5,1.4s-0.1-0.7,0-1.5S30.6,376,30.7,376z"/>
		<path class="st8" d="M31.7,370.2c0.1,0,0.1,0.7,0,1.5s-0.4,1.5-0.5,1.4s-0.1-0.7,0-1.5S31.5,370.2,31.7,370.2z"/>
		<path class="st8" d="M32.7,364.3c0.1,0,0.2,0.7,0,1.5s-0.4,1.5-0.5,1.4s-0.2-0.7,0-1.5S32.5,364.3,32.7,364.3z"/>
		<path class="st8" d="M33.7,358.5c0.1,0,0.2,0.7,0,1.5s-0.4,1.5-0.5,1.4s-0.2-0.7,0-1.5S33.5,358.5,33.7,358.5z"/>
		<path class="st8" d="M34.7,352.6c0.1,0,0.1,0.7,0,1.5s-0.4,1.5-0.5,1.4s-0.2-0.7,0-1.5S34.5,352.6,34.7,352.6z"/>
		<path class="st8" d="M35.7,346.8c0.1,0,0.2,0.7,0,1.5s-0.4,1.5-0.5,1.4s-0.1-0.7,0-1.5S35.5,346.8,35.7,346.8z"/>
		<path class="st8" d="M36.7,340.9c0.1,0,0.2,0.7,0,1.5s-0.4,1.5-0.5,1.4s-0.1-0.7,0-1.5S36.5,340.9,36.7,340.9z"/>
		<path class="st8" d="M37.7,335.1c0.1,0,0.1,0.7,0,1.5s-0.4,1.4-0.5,1.4s-0.1-0.7,0-1.5S37.5,335.1,37.7,335.1z"/>
		<path class="st8" d="M38.7,329.2c0.1,0,0.1,0.7,0,1.5s-0.4,1.4-0.5,1.4s-0.1-0.7,0-1.5S38.5,329.2,38.7,329.2z"/>
		<path class="st8" d="M39.7,323.4c0.1,0,0.1,0.7,0,1.5s-0.4,1.5-0.5,1.4s-0.1-0.7,0-1.5S39.5,323.4,39.7,323.4z"/>
		<path class="st8" d="M40.7,317.5c0.1,0,0.1,0.7,0,1.5s-0.4,1.4-0.5,1.4s-0.1-0.7,0-1.5S40.6,317.5,40.7,317.5z"/>
		<path class="st8" d="M41.7,311.7c0.1,0,0.1,0.7,0,1.5s-0.4,1.4-0.5,1.4s-0.2-0.7,0-1.5S41.6,311.7,41.7,311.7z"/>
		<path class="st8" d="M42.8,305.9c0.2,0,0.1,0.7,0,1.5s-0.4,1.4-0.5,1.4s-0.1-0.7,0-1.5S42.6,305.8,42.8,305.9z"/>
		<path class="st8" d="M43.8,300c0.1,0,0.1,0.7,0,1.5s-0.4,1.4-0.5,1.4s-0.1-0.7,0-1.5S43.7,300,43.8,300z"/>
		<path class="st8" d="M44.9,294.2c0.2,0,0.1,0.7,0,1.5s-0.4,1.4-0.5,1.4s-0.1-0.7,0-1.5S44.7,294.2,44.9,294.2z"/>
		<path class="st8" d="M45.9,288.4c0.1,0,0.1,0.7,0,1.5s-0.4,1.4-0.5,1.4s-0.1-0.7,0-1.5S45.8,288.3,45.9,288.4z"/>
		<path class="st8" d="M47,282.5c0.1,0,0.1,0.7,0,1.5s-0.4,1.4-0.5,1.4s-0.1-0.7,0-1.5S46.8,282.5,47,282.5z"/>
		<path class="st8" d="M48.1,276.7c0.1,0,0.1,0.7,0,1.5s-0.4,1.4-0.5,1.4s-0.1-0.7,0-1.5S47.9,276.6,48.1,276.7z"/>
		<path class="st8" d="M49.2,270.8c0.1,0,0.1,0.7,0,1.5s-0.4,1.4-0.5,1.4s-0.1-0.7,0-1.5S49,270.8,49.2,270.8z"/>
		<path class="st8" d="M50.2,265c0.1,0,0.1,0.7,0,1.5s-0.4,1.4-0.5,1.4s-0.1-0.7,0-1.5S50.1,265,50.2,265z"/>
		<path class="st8" d="M51.3,259.2c0.1,0,0.1,0.7,0,1.5s-0.4,1.4-0.5,1.4s-0.1-0.7,0-1.5S51.2,259.1,51.3,259.2z"/>
		<path class="st8" d="M52.5,253.4c0.1,0,0.1,0.7,0,1.5s-0.4,1.4-0.5,1.4s-0.1-0.7,0-1.5S52.3,253.3,52.5,253.4z"/>
		<path class="st8" d="M53.6,247.5c0.1,0,0.1,0.7,0,1.5s-0.4,1.4-0.5,1.4s-0.1-0.7,0-1.5S53.5,247.5,53.6,247.5z"/>
		<path class="st8" d="M54.8,241.7c0.1,0,0.1,0.7,0,1.5s-0.4,1.4-0.5,1.4s-0.1-0.7,0-1.5S54.6,241.7,54.8,241.7z"/>
		<path class="st8" d="M55.9,235.9c0.1,0,0.1,0.7,0,1.5s-0.4,1.4-0.5,1.4s-0.1-0.7,0-1.5S55.8,235.9,55.9,235.9z"/>
		<path class="st8" d="M57.1,230.1c0.1,0,0.1,0.7,0,1.5s-0.4,1.4-0.5,1.4s-0.1-0.7,0-1.5S56.9,230,57.1,230.1z"/>
		<path class="st8" d="M58.3,224.2c0.1,0,0.1,0.7,0,1.5s-0.4,1.4-0.5,1.4s-0.1-0.7,0-1.5S58.1,224.2,58.3,224.2z"/>
		<path class="st8" d="M59.2,219.9c0.1,0,0.2,0.4,0.1,0.8s-0.3,0.7-0.4,0.7s-0.2-0.4-0.1-0.8S59,219.9,59.2,219.9z"/>
		<path class="st8" d="M77.2,393.6c0.1,0,0.2,0.3,0.2,0.8s-0.2,0.7-0.3,0.7s-0.2-0.4-0.2-0.8S77,393.6,77.2,393.6z"/>
		<path class="st8" d="M77.4,387.6c0.2,0,0.2,0.7,0.2,1.5s-0.2,1.5-0.3,1.5s-0.2-0.7-0.2-1.5S77.3,387.6,77.4,387.6z"/>
		<path class="st8" d="M77.6,381.7c0.1,0,0.2,0.7,0.2,1.5s-0.2,1.5-0.3,1.5s-0.2-0.7-0.2-1.5S77.5,381.7,77.6,381.7z"/>
		<path class="st8" d="M77.8,375.7c0.1,0,0.2,0.7,0.2,1.5s-0.2,1.5-0.3,1.5s-0.2-0.7-0.2-1.5S77.6,375.7,77.8,375.7z"/>
		<path class="st8" d="M77.9,369.8c0.1,0,0.2,0.7,0.2,1.5s-0.2,1.5-0.3,1.5s-0.2-0.7-0.2-1.5S77.8,369.8,77.9,369.8z"/>
		<path class="st8" d="M78.1,363.8c0.1,0,0.2,0.7,0.2,1.5s-0.2,1.5-0.3,1.5s-0.2-0.7-0.2-1.5S77.9,363.8,78.1,363.8z"/>
		<path class="st8" d="M78.2,357.8c0.2,0,0.2,0.7,0.2,1.5s-0.2,1.5-0.3,1.5s-0.2-0.7-0.2-1.5S78.1,357.8,78.2,357.8z"/>
		<path class="st8" d="M78.5,351.9c0.2,0,0.2,0.7,0.2,1.5s-0.2,1.5-0.3,1.5s-0.2-0.7-0.2-1.5S78.4,351.9,78.5,351.9z"/>
		<path class="st8" d="M78.7,345.9c0.2,0,0.2,0.7,0.2,1.5s-0.2,1.5-0.3,1.5s-0.2-0.7-0.2-1.5S78.6,345.9,78.7,345.9z"/>
		<path class="st8" d="M78.9,340c0.2,0,0.2,0.7,0.2,1.5S79,343,78.8,343s-0.2-0.7-0.2-1.5S78.8,340,78.9,340z"/>
		<path class="st8" d="M79.1,334c0.2,0,0.2,0.7,0.2,1.5S79.2,337,79,337s-0.2-0.7-0.2-1.5S79,334,79.1,334z"/>
		<path class="st8" d="M79.3,328.1c0.1,0,0.2,0.7,0.2,1.5s-0.2,1.5-0.3,1.5s-0.2-0.7-0.2-1.5S79.1,328.1,79.3,328.1z"/>
		<path class="st8" d="M79.4,322.1c0.1,0,0.2,0.7,0.2,1.5s-0.2,1.5-0.3,1.5s-0.2-0.7-0.2-1.5S79.3,322.1,79.4,322.1z"/>
		<path class="st8" d="M79.5,316.1c0.1,0,0.2,0.7,0.2,1.5s-0.1,1.5-0.3,1.5s-0.2-0.7-0.2-1.5S79.4,316.1,79.5,316.1z"/>
		<path class="st8" d="M79.6,310.2c0.1,0,0.2,0.7,0.2,1.5s-0.1,1.5-0.3,1.5s-0.2-0.7-0.2-1.5S79.4,310.2,79.6,310.2z"/>
		<path class="st8" d="M79.6,304.2c0.2,0,0.3,0.7,0.3,1.5s-0.1,1.5-0.3,1.5s-0.3-0.7-0.3-1.5S79.5,304.2,79.6,304.2z"/>
		<path class="st8" d="M79.6,298.3c0.1,0,0.3,0.7,0.3,1.5s-0.1,1.5-0.3,1.5s-0.3-0.7-0.3-1.5S79.5,298.3,79.6,298.3z"/>
		<path class="st8" d="M79.6,292.3c0.1,0,0.3,0.7,0.3,1.5s-0.1,1.5-0.3,1.5s-0.3-0.7-0.3-1.5S79.5,292.3,79.6,292.3z"/>
		<path class="st8" d="M79.6,286.4c0.2,0,0.3,0.7,0.3,1.5s-0.1,1.5-0.2,1.5s-0.3-0.7-0.3-1.5S79.4,286.4,79.6,286.4z"/>
		<path class="st8" d="M79.5,280.4c0.1,0,0.3,0.7,0.3,1.5s-0.1,1.5-0.2,1.5s-0.3-0.7-0.3-1.5S79.3,280.4,79.5,280.4z"/>
		<path class="st8" d="M79.4,274.5c0.1,0,0.3,0.7,0.3,1.5s-0.1,1.5-0.2,1.5s-0.3-0.7-0.3-1.5S79.2,274.5,79.4,274.5z"/>
		<path class="st8" d="M79.2,268.5c0.2,0,0.3,0.7,0.3,1.5s-0.1,1.5-0.2,1.5s-0.3-0.7-0.3-1.5S79.1,268.5,79.2,268.5z"/>
		<path class="st8" d="M79.1,262.5c0.1,0,0.3,0.7,0.3,1.5s0,1.5-0.2,1.5s-0.3-0.7-0.3-1.5S78.9,262.5,79.1,262.5z"/>
		<path class="st8" d="M78.7,256.6c0.1,0,0.3,0.6,0.4,1.5s0,1.5-0.2,1.5s-0.3-0.6-0.3-1.5S78.6,256.6,78.7,256.6z"/>
		<path class="st8" d="M78.2,250.7c0.2,0,0.3,0.6,0.4,1.5s0,1.5-0.1,1.5s-0.3-0.6-0.4-1.4S78,250.7,78.2,250.7z"/>
		<path class="st8" d="M77.6,246.2c0.1,0,0.3,0.3,0.4,0.7s0,0.8-0.2,0.8s-0.3-0.3-0.4-0.7S77.4,246.2,77.6,246.2z"/>
		<path class="st8" d="M81.5,218.1c0,0.4,0,0.7,0,1.1c0,0.7-0.1,1.7-0.1,3c-0.1,2.5-0.3,6-0.5,9.9c-0.1,1.9-0.2,3.8-0.4,5.4
			c0,1.5-0.2,3-0.7,4.4c-0.3,1-1.1,1.8-2.1,2.2c-0.3,0.1-0.5,0.2-0.8,0.2c-0.2,0-0.3,0-0.3,0c0.3-0.1,0.7-0.2,1-0.3
			c0.9-0.5,1.5-1.2,1.8-2.2c0.4-1.4,0.5-2.9,0.5-4.3c0.1-1.7,0.2-3.5,0.3-5.4c0.2-3.9,0.5-7.4,0.7-9.9c0.1-1.3,0.2-2.3,0.3-3
			C81.3,218.8,81.3,218.4,81.5,218.1z"/>
		<path class="st8" d="M78.7,220.4c0-0.1,0.4,0,0.6,0.6c0.1,0.6-0.3,1.2-0.9,1.3c-0.6,0.1-1.2-0.3-1.3-0.9c0-0.1,0-0.1,0-0.2
			c0-0.4,0.2-0.7,0.5-0.9c0.5-0.3,0.9-0.1,0.9,0s-0.3,0-0.6,0.3c-0.2,0.1-0.3,0.4-0.3,0.6c0,0.3,0.2,0.5,0.4,0.6
			c0.2,0.1,0.5,0.1,0.7-0.1c0.2-0.2,0.2-0.4,0.2-0.6C79,220.7,78.7,220.5,78.7,220.4z"/>
		<path class="st8" d="M53.5,224.7c0-0.1,0.9,0.3,2.3,0.5c3.8,0.6,7.5-1.1,9.6-4.3c0.8-1.2,1.1-2.1,1.2-2c-0.1,0.8-0.4,1.6-0.8,2.2
			c-2,3.5-6.1,5.3-10,4.5C54.9,225.4,54.1,225.1,53.5,224.7z"/>
		<path class="st8" d="M98.1,218.1c0.1,0,0.1,0.7,0.4,1.8c0.9,2.9,3.4,5.1,6.4,5.6c1.1,0.2,1.9,0.1,1.9,0.2
			c-0.6,0.2-1.3,0.3-1.9,0.2c-3.3-0.3-6-2.7-6.7-5.9C98,219.4,98,218.7,98.1,218.1z"/>
		<path class="st5" d="M113.1,222.2L54,218.1l2-28.2v-15.8l-5.7,8.9l-17.7-15.5l19.2-25l0,0c3.2-3.4,7.2-6,11.7-7.6
			c2.4-0.8,4.8-1.3,7.3-1.4l0,0c5.7,1.8,11.9,1.8,17.7,0c5.4,0.5,10.8,1.5,16,3l22.4,6l-7.3,27.5l-13.5-4.6
			C105.9,165.4,113.3,216.5,113.1,222.2z"/>
		<path class="st4" d="M55.5,175c0.5-1.2,1.1-2.3,1.9-3.4c0.6-1.1,1.4-2.2,2.3-3.1c-0.5,1.2-1.1,2.4-1.8,3.4
			C57.2,173,56.4,174.1,55.5,175z"/>
		<g class="st15">
			<path class="st14" d="M125.9,142.8c0,0.1-16.6,0.3-37,0.3s-37-0.1-37-0.3s16.6-0.3,37-0.3S125.9,142.6,125.9,142.8z"/>
		</g>
		<g class="st15">
			<path class="st14" d="M122.4,155.5c0,0.1-17.9,0.3-40,0.3s-40-0.1-40-0.3s17.9-0.3,40-0.3S122.4,155.4,122.4,155.5z"/>
		</g>
		<g class="st15">
			<path class="st14" d="M106.8,169.6c0,0.1-16,0.3-35.7,0.3s-35.8-0.1-35.8-0.3s16-0.3,35.8-0.3S106.8,169.4,106.8,169.6z"/>
		</g>
		<g class="st15">
			<path class="st14" d="M108.7,184.9c0,0.1-11.8,0.3-26.3,0.3s-26.3-0.1-26.3-0.3s11.8-0.3,26.3-0.3S108.7,184.7,108.7,184.9z"/>
		</g>
		<g class="st15">
			<path class="st14" d="M110.2,200.7c0,0.1-12.1,0.3-27,0.3s-27-0.1-27-0.3s12.1-0.3,27-0.3S110.2,200.6,110.2,200.7z"/>
		</g>
		<g class="st15">
			<path class="st14" d="M112.7,215.2c0,0.1-13.1,0.3-29.2,0.3s-29.2-0.1-29.2-0.3s13.1-0.2,29.2-0.2S112.7,215.1,112.7,215.2z"/>
		</g>
	</g>
</g>
</svg>
